<svg xmlns="http://www.w3.org/2000/svg" width="900" height="620" viewBox="0 0 900 620">
  <defs><filter id="paperNoise"><feTurbulence type="fractalNoise" baseFrequency="0.8" numOctaves="2" seed="5"/><feColorMatrix type="saturate" values="0"/><feComponentTransfer><feFuncA type="table" tableValues="0 0.08"/></feComponentTransfer></filter>
  <style>.brand{font-family:Georgia,'Times New Roman',serif;font-size:76px;letter-spacing:14px;fill:#173A2A;text-anchor:middle}.mid{font-family:Arial,Helvetica,sans-serif;font-size:38px;font-weight:600;letter-spacing:2px;fill:#173A2A;text-anchor:middle}.small{font-family:Arial,Helvetica,sans-serif;font-size:34px;font-weight:500;letter-spacing:2px;fill:#173A2A;text-anchor:middle}.vol{font-family:Arial,Helvetica,sans-serif;font-size:34px;fill:#173A2A;text-anchor:middle}</style></defs>
  <rect x="35" y="35" width="830" height="550" rx="46" fill="#F8F2E8" stroke="#D9CBB6" stroke-width="2" filter="url(#paperNoise)"/>
  <text x="450" y="145" class="brand">SPIRALIS</text><path d="M520 182 C560 158,600 158,640 182 C600 175,565 175,530 193" fill="none" stroke="#173A2A" stroke-width="10" stroke-linecap="round"/>
  <text x="450" y="245" class="mid">CRÈME HYDRATANTE</text><text x="450" y="300" class="mid">ANTI-IMPERFECTIONS</text>
  <text x="450" y="390" class="small">SPIRULINE</text><text x="450" y="440" class="small">+ NIACINAMIDE</text><text x="450" y="490" class="small">+ ZINC PCA</text>
  <path d="M450 525 m-26 0 a26 26 0 1 0 52 0 a26 26 0 1 0 -52 0 M450 525 m-13 0 a13 13 0 1 0 26 0" fill="none" stroke="#173A2A" stroke-width="5" stroke-linecap="round"/>
  <text x="450" y="568" class="vol">30 ml</text>
</svg>
